<svg width="128" height="128" viewBox="0 0 128 128" fill="none" xmlns="http://www.w3.org/2000/svg">
  <circle cx="64" cy="64" r="60" stroke="#10B981" stroke-width="2" stroke-dasharray="4 4"/>
  <g transform="translate(32, 32)">
    <path d="M40 20C40 31 31 40 20 40C9 40 0 31 0 20C0 9 9 0 20 0C31 0 40 9 40 20Z" fill="#10B981"/>
    <path d="M25 15H15C14.4477 15 14 15.4477 14 16V24C14 24.5523 14.4477 25 15 25H25C25.5523 25 26 24.5523 26 24V16C26 15.4477 25.5523 15 25 15Z" stroke="white" stroke-width="2"/>
    <path d="M14 18L20 22L26 18" stroke="white" stroke-width="2"/>
  </g>
</svg> 